<?xml version="1.0" encoding="UTF-8"?>
<svg width="102px" height="102px" viewBox="0 0 102 102" version="1.1" xmlns="http://www.w3.org/2000/svg" xmlns:xlink="http://www.w3.org/1999/xlink">
    <title>Group</title>
    <defs>
        <linearGradient x1="102.032066%" y1="100%" x2="7.52262672%" y2="4.44964901%" id="linearGradient-1">
            <stop stop-color="#FFFFFF" offset="0%"></stop>
            <stop stop-color="#FFFFFF" offset="100%"></stop>
        </linearGradient>
        <path d="M37.9447953,42.3912823 C32.3084862,47.5564584 33.0436569,52.4756737 39.6601937,56.9029676 C56.7816412,68.4184192 69.1596,81.5528442 69.485209,101.999075 L20.9988202,101.999874 C9.40084045,101.999874 -0.00117980233,92.597854 -0.00117980233,80.9998743 L-0.00117980233,20.999944 C-0.00117980233,9.40196423 9.40084045,-5.60205662e-05 20.9988202,-5.60205662e-05 L66.243903,0.000544658879 C62.366714,15.2957161 52.7578501,28.7889274 37.9447953,42.3912823 Z M101.997353,20.999944 L101.997353,80.9998743 C101.997353,82.8158998 101.766837,84.5780856 101.33347,86.2587674 C95.4213652,73.2158276 84.8006384,62.8365696 69.296028,54.0135716 C59.9779503,48.7110597 60.0344574,53.186479 57.9902743,51.4955311 C54.5572044,48.6556964 57.0435247,42.4124676 63.9835057,38.9589062 C64.4835784,38.7100537 64.8459477,38.3717945 65.2624263,37.9579882 L65.5203411,37.7007497 C66.055295,37.1685848 66.7234084,36.5316235 67.8561338,35.8138153 C77.1510835,29.9236045 89.0602225,21.8377366 97.6605322,8.21729699 C100.380206,11.757619 101.997353,16.1899291 101.997353,20.999944 Z M79.9860134,34.8604757 C76.3264361,34.5227446 73.1476748,36.1630719 70.4497296,39.7814575 C76.8072522,41.483318 79.1574464,40.8250199 77.5003124,37.8065634 C76.5876568,36.1441685 82.8653229,35.1261983 79.9860134,34.8604757 Z" id="path-2"></path>
    </defs>
    <g id="Page-1" stroke="none" stroke-width="1" fill="none" fill-rule="evenodd">
        <g id="Artboard-Copy-6" transform="translate(-422, -235)">
            <g id="Group" transform="translate(422.0012, 235.0001)">
                <mask id="mask-3" fill="white">
                    <use xlink:href="#path-2"></use>
                </mask>
                <use id="Combined-Shape" fill="url(#linearGradient-1)" xlink:href="#path-2"></use>
                <g mask="url(#mask-3)">
                    <g transform="translate(33.9988, -27.0001)"></g>
                </g>
            </g>
        </g>
    </g>
</svg>