<?xml version="1.0" encoding="UTF-8"?>
<svg width="419px" height="90px" viewBox="0 0 419 90" version="1.1" xmlns="http://www.w3.org/2000/svg" xmlns:xlink="http://www.w3.org/1999/xlink">
    <title>Combined Shape</title>
    <g id="Page-1" stroke="none" stroke-width="1" fill="none" fill-rule="evenodd">
        <g id="Artboard" transform="translate(-259, -260)" fill="#3C3C3C" fill-rule="nonzero">
            <path d="M289.995392,350 C306.852535,350 318,341.53681 318,321.06135 L318,261 L298.967742,261 L298.967742,317.785276 C298.967742,338.943252 295.705069,343.038344 288.5,343.038344 C281.430876,343.038344 278.168203,337.851227 278.168203,319.150307 L278.168203,261 L259,261 L259,321.06135 C259,341.53681 273.546083,350 289.995392,350 Z M358.995392,260 C342.546083,260 328,268.190184 328,288.256135 L328,349 L347.168203,349 L347.168203,310.752057 L367.967742,310.752057 L367.967742,349 L387,349 L387,288.93865 C387,268.46319 375.852535,260 358.995392,260 Z M347.168203,290.849693 C347.440092,276.380368 350.430876,266.961656 357.5,266.961656 C364.705069,266.961656 367.967742,273.104294 367.967742,288.802147 L367.967742,300.214237 L347.168203,300.214237 L347.168203,290.849693 Z M418.488636,310.201335 L437.629261,310.201335 L437.629261,299.306042 L418.488636,299.306042 L418.488636,272.666296 L448,272.666296 L448,261 L399,261 L399,322.801734 L399,349 L448,349 L448,337.333704 L418.488636,337.333704 L418.488636,310.201335 Z M461,261 L461,349 L480,349 L480,261 L461,261 Z M552.983871,349 L572.016129,349 L572.016129,325.275862 C584.251152,323.482759 592,316.586207 592,299.344828 L592,261 L572.967742,261 L572.967742,299.482759 C572.967742,315.344828 569.705069,318.793103 562.5,318.793103 C555.430876,318.793103 552.168203,314.655172 552.168203,300.034483 L552.168203,261 L533,261 L533,300.034483 C533,315.62069 541.564516,322.517241 552.983871,324.862069 L552.983871,349 Z M601,304.864865 C601,343.243243 620.6625,350 640.1875,350 C656.825,350 673.325,345.135135 678,320.540541 L656.275,320.405405 C654.075,331.486486 653.1125,345.135135 642.3875,345.135135 C627.95,345.135135 623.4125,328.243243 623.4125,304.864865 C623.4125,275.540541 629.875,264.864865 642.525,264.864865 C650.775,264.864865 653.6625,274.054054 656.1375,287.837838 L677.725,287.837838 C672.6375,264.594595 656.4125,260 640.1875,260 C620.6625,260 601,266.621622 601,304.864865 Z M525,261 C523.551746,282.042157 510.720445,290.975247 501.98594,296.483871 C500.709414,297.288943 500.480078,297.912663 499.803809,298.24759 C495.893299,300.184294 494.492318,303.685401 496.426769,305.277937 C496.782795,305.571035 497.025734,305.533765 497.346527,305.430161 L497.463292,305.39127 C498.187007,305.146561 499.360589,304.743681 502.797286,306.690016 C519.506929,316.153336 526.149508,328.809228 523.416568,349 L499.803809,349 C507.734509,327.991356 499.492325,317.275862 486.098216,308.310345 C482.369959,305.827586 481.955708,303.068966 485.131631,300.172414 C498.111489,288.310345 504,276.596287 501.679439,261 Z M508.556234,297.014699 C510.233839,297.10501 506.576211,297.450987 507.107962,298.015984 C508.073477,299.041865 506.704156,299.265601 503,298.68719 C504.571935,297.457411 506.424013,296.899914 508.556234,297.014699 Z" id="Combined-Shape"></path>
        </g>
    </g>
</svg>