<?xml version="1.0" encoding="UTF-8"?>
<svg width="78px" height="166px" viewBox="0 0 78 166" version="1.1" xmlns="http://www.w3.org/2000/svg" xmlns:xlink="http://www.w3.org/1999/xlink">
    <title>Combined Shape</title>
    <g id="Page-1" stroke="none" stroke-width="1" fill="none" fill-rule="evenodd">
        <g id="Artboard-Copy-3" transform="translate(-419, -225)" fill="#505050">
            <path d="M497,225 C494.310386,264.69316 470.480827,281.544216 454.259604,291.935484 C451.888912,293.454142 451.463002,294.630706 450.207074,295.262499 C442.944698,298.915828 440.342877,305.520189 443.935429,308.524291 C446.074574,310.313049 446.015442,305.578755 455.766388,311.187984 C486.798582,329.039247 499.1348,352.912861 494.05934,391 L450.207074,391 C464.935518,351.370058 449.628603,331.15674 424.75383,314.244514 C417.829924,309.561129 417.060601,304.357367 422.958743,298.893417 C447.064194,276.517241 458,254.420269 453.690388,225 Z M467.186429,291.044096 C470.262038,291.315029 463.556386,292.35296 464.531263,294.047952 C466.301374,297.125596 463.790953,297.796802 457,296.061571 C459.88188,292.372234 463.277357,290.699742 467.186429,291.044096 Z" id="Combined-Shape"></path>
        </g>
    </g>
</svg>